<?xml version="1.0" encoding="UTF-8" standalone="no"?>
<svg
   xmlns:dc="http://purl.org/dc/elements/1.1/"
   xmlns:cc="http://creativecommons.org/ns#"
   xmlns:rdf="http://www.w3.org/1999/02/22-rdf-syntax-ns#"
   xmlns:svg="http://www.w3.org/2000/svg"
   xmlns="http://www.w3.org/2000/svg"
   xmlns:sodipodi="http://sodipodi.sourceforge.net/DTD/sodipodi-0.dtd"
   xmlns:inkscape="http://www.inkscape.org/namespaces/inkscape"
   width="128"
   height="128"
   viewBox="0 0 33.86624 33.86624"
   version="1.1"
   id="svg8"
   inkscape:version="1.0beta1 (32d4812, 2019-09-19)"
   sodipodi:docname="logo.svg">
  <defs
     id="defs2" />
  <sodipodi:namedview
     showborder="true"
     inkscape:pagecheckerboard="true"
     units="px"
     id="base"
     pagecolor="#ffffff"
     bordercolor="#666666"
     borderopacity="1.0"
     inkscape:pageopacity="0.0"
     inkscape:pageshadow="2"
     inkscape:zoom="3.6598211"
     inkscape:cx="100.12922"
     inkscape:cy="74.298076"
     inkscape:document-units="px"
     inkscape:current-layer="layer1"
     inkscape:document-rotation="0"
     showgrid="false"
     inkscape:window-width="1605"
     inkscape:window-height="907"
     inkscape:window-x="0"
     inkscape:window-y="23"
     inkscape:window-maximized="0" />
  <metadata
     id="metadata5">
    <rdf:RDF>
      <cc:Work
         rdf:about="">
        <dc:format>image/svg+xml</dc:format>
        <dc:type
           rdf:resource="http://purl.org/dc/dcmitype/StillImage" />
        <dc:title></dc:title>
      </cc:Work>
    </rdf:RDF>
  </metadata>
  <g
     style="display:inline"
     inkscape:label="レイヤー 1"
     inkscape:groupmode="layer"
     id="layer1">
    <path
       inkscape:connector-curvature="0"
       d="M 9.960784,6.5821505 A 4.980392,4.9803629 0 0 1 4.980392,11.562513 4.980392,4.9803629 0 0 1 0,6.5821505 4.980392,4.9803629 0 0 1 4.980392,1.6017876 4.980392,4.9803629 0 0 1 9.960784,6.5821505"
       style="fill:#c7b1fc;fill-opacity:1;fill-rule:evenodd;stroke:none;stroke-width:0.102935;stroke-opacity:1"
       id="path10" />
    <path
       inkscape:connector-curvature="0"
       d="M 21.913726,6.5821505 A 4.980392,4.9803629 0 0 1 16.933334,11.562513 4.980392,4.9803629 0 0 1 11.952942,6.5821505 4.980392,4.9803629 0 0 1 16.933334,1.6017876 4.980392,4.9803629 0 0 1 21.913726,6.5821505"
       style="fill:#ffadf3;fill-opacity:1;fill-rule:evenodd;stroke:none;stroke-width:0.102935;stroke-opacity:1"
       id="path10-3" />
    <path
       inkscape:connector-curvature="0"
       d="M 33.866666,6.5821505 A 4.980392,4.9803629 0 0 1 28.886274,11.562513 4.980392,4.9803629 0 0 1 23.905882,6.5821505 4.980392,4.9803629 0 0 1 28.886274,1.6017876 4.980392,4.9803629 0 0 1 33.866666,6.5821505"
       style="fill:#8c94e6;fill-opacity:1;fill-rule:evenodd;stroke:none;stroke-width:0.102935;stroke-opacity:1"
       id="path10-3-8" />
    <path
       inkscape:connector-curvature="0"
       d="m 15.937257,16.933336 a 4.980392,4.9803629 0 0 1 -4.980392,4.980363 4.980392,4.9803629 0 0 1 -4.9803917,-4.980363 4.980392,4.9803629 0 0 1 4.9803917,-4.980363 4.980392,4.9803629 0 0 1 4.980392,4.980363"
       style="fill:#afd4fe;fill-opacity:1;fill-rule:evenodd;stroke:none;stroke-width:0.102935;stroke-opacity:1"
       id="path10-3-1" />
    <path
       inkscape:connector-curvature="0"
       d="M 27.890192,16.933336 A 4.980392,4.9803629 0 0 1 22.9098,21.913699 4.980392,4.9803629 0 0 1 17.929408,16.933336 4.980392,4.9803629 0 0 1 22.9098,11.952973 4.980392,4.9803629 0 0 1 27.890192,16.933336"
       style="fill:#cc93e6;fill-opacity:1;fill-rule:evenodd;stroke:none;stroke-width:0.102935;stroke-opacity:1"
       id="path10-3-1-8" />
    <path
       inkscape:connector-curvature="0"
       d="M 9.960784,27.284517 A 4.980392,4.9803629 0 0 1 4.980392,32.26488 4.980392,4.9803629 0 0 1 0,27.284517 4.980392,4.9803629 0 0 1 4.980392,22.304154 4.980392,4.9803629 0 0 1 9.960784,27.284517"
       style="fill:#cc93e6;fill-opacity:1;fill-rule:evenodd;stroke:none;stroke-width:0.102935;stroke-opacity:1"
       id="path10-5" />
    <path
       inkscape:connector-curvature="0"
       d="m 21.913726,27.284517 a 4.980392,4.9803629 0 0 1 -4.980392,4.980363 4.980392,4.9803629 0 0 1 -4.980392,-4.980363 4.980392,4.9803629 0 0 1 4.980392,-4.980363 4.980392,4.9803629 0 0 1 4.980392,4.980363"
       style="fill:#ffadf3;fill-opacity:1;fill-rule:evenodd;stroke:none;stroke-width:0.102935;stroke-opacity:1"
       id="path10-3-19" />
    <path
       inkscape:connector-curvature="0"
       d="m 33.866666,27.284517 a 4.980392,4.9803629 0 0 1 -4.980392,4.980363 4.980392,4.9803629 0 0 1 -4.980392,-4.980363 4.980392,4.9803629 0 0 1 4.980392,-4.980363 4.980392,4.9803629 0 0 1 4.980392,4.980363"
       style="fill:#afd4fe;fill-opacity:1;fill-rule:evenodd;stroke:none;stroke-width:0.102935;stroke-opacity:1"
       id="path10-3-8-4" />
  </g>
</svg>
